<svg width="440" height="176" viewBox="0 0 440 176" fill="none" xmlns="http://www.w3.org/2000/svg">
<rect x="360" y="86" width="80" height="80" rx="5" fill="#969696"/>
<rect x="90" y="86" width="80" height="80" rx="5" fill="#0096B7"/>
<rect y="86" width="80" height="80" rx="5" fill="#EC0071"/>
<rect x="180" y="86" width="80" height="80" rx="5" fill="#969696"/>
<rect x="270" y="86" width="80" height="80" rx="5" fill="#969696"/>
<path d="M294.416 103.408H325.584V110.576H313.552V150H306.128V110.576H294.416V103.408Z" fill="white"/>
<path d="M389.401 135.232C389.401 137.067 389.871 138.752 390.809 140.288C391.791 141.781 393.071 142.997 394.649 143.936C396.228 144.832 397.999 145.28 399.961 145.28C402.009 145.28 403.844 144.832 405.465 143.936C407.087 142.997 408.367 141.781 409.305 140.288C410.244 138.752 410.713 137.067 410.713 135.232V105.408H418.073V135.424C418.073 138.795 417.263 141.781 415.641 144.384C414.02 146.944 411.844 148.949 409.113 150.4C406.383 151.808 403.332 152.512 399.961 152.512C396.633 152.512 393.604 151.808 390.873 150.4C388.143 148.949 385.967 146.944 384.345 144.384C382.767 141.781 381.977 138.795 381.977 135.424V105.408H389.401V135.232Z" fill="white"/>
<path d="M77.3368 19.664H86.0408L97.5608 52.688L96.3448 52.176L105.305 29.2L108.761 39.312L95.9608 68.176L77.3368 19.664ZM100.185 19.664H107.545L120.345 51.984L118.873 51.728L129.497 19.664H137.497L119.321 68.048L100.185 19.664ZM139.801 42.768C139.801 39.5253 140.42 36.4747 141.657 33.616C142.895 30.7573 144.601 28.2187 146.777 26C148.953 23.7813 151.471 22.0533 154.329 20.816C157.231 19.536 160.324 18.896 163.609 18.896C166.852 18.896 169.903 19.536 172.761 20.816C175.663 22.0533 178.201 23.7813 180.377 26C182.596 28.2187 184.324 30.7573 185.561 33.616C186.841 36.4747 187.481 39.5253 187.481 42.768C187.481 46.0533 186.841 49.1253 185.561 51.984C184.324 54.8427 182.596 57.3813 180.377 59.6C178.201 61.776 175.663 63.4827 172.761 64.72C169.903 65.9147 166.852 66.512 163.609 66.512C160.281 66.512 157.188 65.9147 154.329 64.72C151.471 63.4827 148.953 61.7973 146.777 59.664C144.601 57.488 142.895 54.9707 141.657 52.112C140.42 49.2107 139.801 46.096 139.801 42.768ZM147.481 42.768C147.481 45.072 147.887 47.2267 148.697 49.232C149.551 51.2373 150.724 53.008 152.217 54.544C153.711 56.0373 155.439 57.2107 157.401 58.064C159.364 58.9173 161.497 59.344 163.801 59.344C166.02 59.344 168.089 58.9173 170.009 58.064C171.972 57.2107 173.679 56.0373 175.129 54.544C176.58 53.008 177.711 51.2373 178.521 49.232C179.375 47.2267 179.801 45.072 179.801 42.768C179.801 40.4213 179.375 38.2453 178.521 36.24C177.668 34.2347 176.516 32.464 175.065 30.928C173.615 29.392 171.908 28.1973 169.945 27.344C167.983 26.4907 165.871 26.064 163.609 26.064C161.348 26.064 159.236 26.4907 157.273 27.344C155.311 28.1973 153.583 29.392 152.089 30.928C150.639 32.464 149.508 34.256 148.697 36.304C147.887 38.3093 147.481 40.464 147.481 42.768ZM210.551 19.408C213.111 19.408 215.458 19.7493 217.591 20.432C219.725 21.072 221.538 22.032 223.031 23.312C224.525 24.592 225.677 26.1707 226.487 28.048C227.341 29.8827 227.767 31.9947 227.767 34.384C227.767 36.2187 227.49 38.0533 226.935 39.888C226.381 41.7227 225.463 43.3867 224.183 44.88C222.946 46.3733 221.303 47.568 219.255 48.464C217.207 49.36 214.669 49.808 211.639 49.808H204.919V66H197.431V19.408H210.551ZM211.575 42.64C213.239 42.64 214.626 42.384 215.735 41.872C216.845 41.3173 217.698 40.6347 218.295 39.824C218.935 39.0133 219.383 38.16 219.639 37.264C219.938 36.3253 220.087 35.4507 220.087 34.64C220.087 33.872 219.959 33.04 219.703 32.144C219.447 31.2053 219.021 30.3307 218.423 29.52C217.826 28.6667 216.973 27.9627 215.863 27.408C214.797 26.8533 213.453 26.576 211.831 26.576H204.919V42.64H211.575ZM219.639 47.056L231.543 66H222.903L210.743 47.248L219.639 47.056ZM240.306 66V19.408H253.554C258.205 19.408 262.152 20.112 265.394 21.52C268.637 22.8853 271.261 24.7413 273.266 27.088C275.272 29.392 276.722 31.9733 277.618 34.832C278.557 37.648 279.026 40.4853 279.026 43.344C279.026 46.8427 278.408 49.9787 277.17 52.752C275.933 55.5253 274.248 57.9147 272.114 59.92C269.981 61.8827 267.506 63.3973 264.69 64.464C261.917 65.488 258.952 66 255.794 66H240.306ZM247.794 58.832H254.45C256.925 58.832 259.186 58.4907 261.234 57.808C263.282 57.0827 265.053 56.0587 266.546 54.736C268.082 53.3707 269.256 51.6853 270.066 49.68C270.92 47.6747 271.346 45.392 271.346 42.832C271.346 39.9307 270.856 37.456 269.874 35.408C268.936 33.3173 267.677 31.632 266.098 30.352C264.562 29.0293 262.877 28.0693 261.042 27.472C259.208 26.8747 257.394 26.576 255.602 26.576H247.794V58.832ZM288.994 19.408H296.482V58.832H319.458V66H288.994V19.408ZM329.306 19.408H360.218V26.576H336.794V38.992H357.658V46.224H336.794V58.832H361.114V66H329.306V19.408Z" fill="black"/>
<path d="M31.8895 121.264L31.6975 123.632L32.7215 122.16L50.1935 103.408H59.8575L40.5935 123.76L60.5615 150H51.0895L35.1535 128.496L31.8895 131.696V150H24.3375V103.408H31.8895V121.264Z" fill="white"/>
<path d="M109.161 150L129.769 101.488H130.217L150.825 150H142.249L127.721 113.2L133.097 109.552L116.521 150H109.161ZM122.089 132.72H138.025L140.585 139.056H119.849L122.089 132.72Z" fill="white"/>
<path d="M218.083 103.408C220.643 103.408 222.989 103.749 225.123 104.432C227.256 105.072 229.069 106.032 230.562 107.312C232.056 108.592 233.208 110.171 234.019 112.048C234.872 113.883 235.299 115.995 235.299 118.384C235.299 120.219 235.021 122.053 234.467 123.888C233.912 125.723 232.995 127.387 231.715 128.88C230.477 130.373 228.835 131.568 226.787 132.464C224.739 133.36 222.2 133.808 219.171 133.808H212.451V150H204.963V103.408H218.083ZM219.107 126.64C220.771 126.64 222.157 126.384 223.267 125.872C224.376 125.317 225.229 124.635 225.827 123.824C226.467 123.013 226.915 122.16 227.171 121.264C227.469 120.325 227.619 119.451 227.619 118.64C227.619 117.872 227.491 117.04 227.235 116.144C226.979 115.205 226.552 114.331 225.955 113.52C225.357 112.667 224.504 111.963 223.395 111.408C222.328 110.853 220.984 110.576 219.363 110.576H212.451V126.64H219.107ZM227.171 131.056L239.075 150H230.435L218.275 131.248L227.171 131.056Z" fill="white"/>
</svg>
